<svg width="50" height="50" viewBox="0 0 50 50" fill="none" xmlns="http://www.w3.org/2000/svg">
<rect width="50" height="50" rx="5" fill="#C1CCD3"/>
<path d="M14.2857 22.619L35.7143 16.6667V30.9524L14.2857 26.1905V22.619Z" stroke="#F0F4F7" stroke-width="2" stroke-linecap="round" stroke-linejoin="round"/>
<path d="M24.5238 29.5241C24.3987 29.9774 24.1856 30.4017 23.8965 30.7727C23.6075 31.1437 23.2482 31.4542 22.8392 31.6863C22.4301 31.9185 21.9794 32.0678 21.5127 32.1257C21.0459 32.1837 20.5724 32.1491 20.119 32.0241C19.6656 31.899 19.2413 31.6858 18.8703 31.3968C18.4993 31.1078 18.1889 30.7485 17.9567 30.3394C17.7246 29.9304 17.5753 29.4797 17.5173 29.013C17.4594 28.5462 17.4939 28.0727 17.619 27.6193" stroke="#F0F4F7" stroke-width="2" stroke-linecap="round" stroke-linejoin="round"/>
</svg>
