<svg width="50" height="50" viewBox="0 0 50 50" fill="none" xmlns="http://www.w3.org/2000/svg">
<rect width="50" height="50" rx="5" fill="#3AB6EC"/>
<path d="M25.1 16C23.9 16 22.7 16.6 22.1 17.7C21.5012 17.5467 20.873 17.5501 20.2759 17.71C19.6789 17.8699 19.133 18.1808 18.691 18.6128C18.2489 19.0449 17.9255 19.5834 17.752 20.1767C17.5784 20.7699 17.5605 21.3978 17.7 22C16.7 22.6 16 23.8 16 25C16 26.2 16.7 27.4 17.7 28C17.4 29.2 17.7 30.5 18.7 31.4C19.5 32.2 20.8 32.6 22 32.4C22.6 33.4 23.8 34 25 34C26.2 34 27.4 33.4 28 32.3C29.2 32.6 30.5 32.3 31.4 31.3C32.2 30.5 32.6 29.3 32.4 28C33.4 27.4 34 26.2 34 25C34 23.8 33.4 22.6 32.3 22C32.6 20.8 32.3 19.5 31.3 18.6C30.8725 18.1779 30.3486 17.8663 29.7736 17.6921C29.1987 17.5178 28.5899 17.4862 28 17.6C27.4 16.6 26.2 16 25 16H25.1Z" stroke="#F0F4F7" stroke-width="2" stroke-linecap="round" stroke-linejoin="round"/>
<path d="M22.1 25L24.1 27L28.1 23" stroke="#F0F4F7" stroke-width="2" stroke-linecap="round" stroke-linejoin="round"/>
</svg>
