<svg width="157" height="130" viewBox="0 0 157 130" fill="none" xmlns="http://www.w3.org/2000/svg">
<path d="M129.923 2.07995C108.962 2.41005 22.6059 2.58959 1.00581 2.31504C-0.276764 2.29894 -0.374185 0.113013 0.953475 0.113013C23.2194 0.140387 100.19 -0.283918 129.88 0.35455C131.309 0.383535 130.922 2.06384 129.923 2.07995Z" fill="#191919"/>
<path d="M104.203 64.8575C102.756 65.4821 101.22 65.8713 99.651 66.0115C99.8013 67.8552 99.7819 69.7091 99.5913 71.5488C99.5705 71.6481 99.5155 71.7373 99.4357 71.7997C99.3558 71.8621 99.2565 71.8943 99.1552 71.891C99.0539 71.8869 98.9566 71.848 98.8815 71.7796C98.8063 71.7111 98.758 71.6192 98.7446 71.5186C98.5936 70.2599 98.9459 68.8972 98.6922 66.0732C96.8089 66.1242 95.9266 65.5405 94.2721 65.3157C90.1579 64.7535 86.2033 63.3505 82.6547 61.1935C82.5494 61.1123 82.4803 60.9935 82.4615 60.862C82.4434 60.7305 82.4776 60.597 82.5574 60.4903C86.198 56.0447 88.9978 50.9723 90.8187 45.5223C91.0335 44.9064 91.746 44.0788 91.7493 45.1391C91.7581 47.8572 91.4414 50.5737 91.4414 53.2958C91.4414 58.236 91.5722 63.521 96.3855 64.7622C99.337 65.5217 102.084 64.5589 103.911 64.0711C104.345 63.951 104.667 64.6327 104.203 64.8575Z" fill="#191919"/>
<path d="M97.235 54.2868C96.813 55.104 98.2508 55.0074 99.1136 55.0483C99.2223 55.0577 99.3243 55.1053 99.4014 55.1825C99.4786 55.2596 99.5262 55.3616 99.5356 55.4703C99.5444 55.579 99.5148 55.6877 99.4518 55.7769C99.3887 55.8662 99.2954 55.9299 99.1901 55.9568C98.6198 56.0332 98.0401 56.0004 97.4819 55.8601C96.4855 55.6535 95.7247 55.2858 96.2675 54.1694C96.6184 53.4159 97.0169 52.6852 97.4604 51.9821C97.5148 51.8969 97.5986 51.8345 97.6952 51.8063C97.7925 51.7781 97.8965 51.7862 97.9884 51.8291C98.0797 51.8721 98.1522 51.9472 98.1924 52.0398C98.2333 52.1324 98.2387 52.2364 98.2078 52.333C97.9334 53.008 97.608 53.6608 97.235 54.2868Z" fill="#191919"/>
<path d="M102.698 51.1394C102.708 51.6567 102.746 52.4397 101.985 52.4598C101.371 52.4773 101.199 51.9345 101.202 51.2092C101.205 49.9022 102.666 49.5383 102.698 51.1394Z" fill="#191919"/>
<path d="M95.5154 51.1065C95.5026 51.601 95.2926 52.0673 94.7216 52.0438C94.2446 52.0244 94.0735 51.3803 94.0869 50.9561C94.107 50.3297 94.3043 50.0101 94.7008 49.9231C95.3087 49.7895 95.5321 50.4867 95.5154 51.1065Z" fill="#191919"/>
<path d="M94.9638 47.4192C94.6445 47.3824 94.3217 47.4354 94.0312 47.5723C93.7407 47.7091 93.4945 47.9244 93.3193 48.1938C92.8785 48.8459 92.4069 48.3105 92.5739 47.9241C92.7893 47.4542 93.1489 47.0657 93.6011 46.8156C94.0534 46.5655 94.574 46.4669 95.0859 46.5344C95.2007 46.5539 95.3027 46.6172 95.3718 46.7108C95.4402 46.8045 95.4697 46.9211 95.4536 47.0361C95.4382 47.1511 95.3778 47.2555 95.2865 47.327C95.1946 47.3985 95.0792 47.4316 94.9638 47.4192Z" fill="#191919"/>
<path d="M101.522 47.3081C101.422 47.3075 101.325 47.2711 101.249 47.2055C101.173 47.1399 101.122 47.0493 101.106 46.9499C101.091 46.8506 101.112 46.7489 101.164 46.6632C101.216 46.5775 101.298 46.5133 101.393 46.4821C102.008 46.3503 102.649 46.4454 103.2 46.7496C103.749 47.0538 104.17 47.5468 104.385 48.1374C104.518 48.5988 103.902 48.9772 103.669 48.4595C103.483 48.0613 103.174 47.7338 102.788 47.5262C102.401 47.3187 101.956 47.2421 101.522 47.3081Z" fill="#191919"/>
<path d="M97.6865 58.6177C98.0327 59.3973 98.6473 60.0267 99.4182 60.3924C100.189 60.7573 101.065 60.8332 101.888 60.6071C102.736 60.3333 103.449 59.7483 103.882 58.9693C104.315 58.1903 104.437 57.2758 104.223 56.411C104.124 56.0084 103.764 55.8682 103.33 56.2097C101.518 57.6381 100.177 57.8609 98.0354 57.8964C97.6872 57.9018 97.4839 58.2138 97.6865 58.6177Z" fill="#191919"/>
<path d="M39.12 74.1238C39.3116 74.4868 38.7754 74.8766 38.4759 74.6069C36.7425 73.0376 33.5686 70.8228 32.6733 68.7295C31.4656 65.9115 32.125 62.3824 29.7354 60.1025C29.6493 60.0287 29.5948 59.9247 29.5832 59.812C29.5718 59.6993 29.6041 59.5866 29.6736 59.4967C29.7431 59.4074 29.8444 59.3477 29.9564 59.3309C30.0685 59.3142 30.1829 59.341 30.2757 59.4061C32.9165 61.2632 32.4157 64.9004 33.6387 67.5379C34.8786 70.2082 37.761 71.5548 39.12 74.1238Z" fill="#191919"/>
<path d="M21.4578 70.011C18.9944 69.5225 16.6902 68.4316 14.7511 66.8361C14.1287 66.2873 14.8743 65.8458 15.3283 66.1524C17.2569 67.5151 19.464 68.4316 21.7903 68.8375C24.0609 69.173 26.3724 69.1139 28.6227 68.6617C29.1774 68.5879 29.1653 69.3991 28.7837 69.6279C27.0478 70.6705 23.4062 70.4404 21.4578 70.011Z" fill="#191919"/>
<path d="M11.2206 68.7557C10.8761 68.3786 11.4557 67.8767 11.8342 68.1505C14.418 70.1331 17.3848 71.5588 20.5473 72.3371C23.0174 72.9007 22.3322 74.0568 20.1149 73.5999C16.7175 72.9524 13.6076 71.2589 11.2206 68.7557Z" fill="#191919"/>
<path d="M20.8177 77.5785C17.883 77.4088 13.8187 76.0562 11.6159 74.1252C11.5384 74.0548 11.4888 73.9588 11.4758 73.8548C11.4629 73.7508 11.4875 73.6455 11.5453 73.5583C11.6032 73.4704 11.6903 73.4066 11.7911 73.3778C11.8919 73.3489 11.9996 73.357 12.095 73.4006C15.4435 75.0417 17.2293 75.875 20.9715 76.3393C23.1438 76.6097 23.0801 77.71 20.8177 77.5785Z" fill="#191919"/>
<path d="M33.7881 81.3351C34.3783 81.7377 33.7076 82.7287 33.1062 82.3731C29.9323 80.5045 26.3181 81.6485 22.8705 81.6431C19.509 81.7001 16.2159 80.6897 13.4642 78.7581C13.0673 78.4608 13.5045 77.867 13.9239 78.0589C17.0745 79.6504 20.5739 80.4254 24.1016 80.3133C27.3599 80.116 30.8912 79.3626 33.7881 81.3351Z" fill="#191919"/>
<path d="M155.933 128.941C123.708 129.333 31.9543 128.526 12.3559 128.297C11.0934 128.282 10.0918 126.857 12.3196 126.848C37.5202 126.718 118.405 126.749 155.887 127.094C157.362 127.103 157.366 128.923 155.933 128.941Z" fill="#3AB6EC"/>
<path d="M93.8373 70.6886C86.7522 71.8158 73.181 79.3907 65.7906 89.1644C72.7952 88.1043 93.4549 87.9231 99.392 88.6196C97.1585 85.8989 94.6847 83.3849 92.001 81.1077C93.0315 79.9262 94.001 79.0076 94.8484 78.1992C93.1523 77.1525 90.3632 75.4832 89.132 74.9082C90.5269 73.3187 92.1063 71.9024 93.8373 70.6886Z" fill="#3AB6EC"/>
<path d="M109.329 78.5621C110.237 79.4679 111.012 80.4978 111.63 81.6216C109.146 83.0454 104.329 85.711 101.422 88.8007C104.198 89.1644 106.011 90.5116 106.977 94.5976C107.392 96.3501 107.966 99.1627 108.534 102.32C113.794 101.17 119.141 100.463 124.519 100.206C123.575 97.7893 122.314 95.5094 120.768 93.4268C120.437 92.988 121.051 92.4305 121.418 92.8565C123.285 95.0002 124.73 97.4773 125.676 100.158C128.086 100.015 130.502 100.05 132.906 100.26C133.453 100.322 133.46 101.141 132.893 101.127C124.774 100.862 116.654 101.628 108.728 103.404C109.537 108.019 110.298 113.176 110.538 116.787C123.017 116.665 143.263 122.832 146.4 115.393C153.428 98.734 132.085 72.4411 116.9 70.1391C118.181 71.9131 119.079 73.9353 119.535 76.0763C117.871 76.6533 111.511 78.1676 109.329 78.5621Z" fill="#3AB6EC"/>
<path d="M99.9865 83.2882C97.4342 76.919 97.5033 73.5287 96.776 70.4062C96.7593 70.2988 96.7016 70.2015 96.615 70.1351C96.5291 70.0687 96.4204 70.0378 96.3118 70.0486C96.2031 70.06 96.1038 70.113 96.0326 70.1955C95.9615 70.2787 95.9253 70.3854 95.9313 70.4941C95.9052 74.2627 97.8254 80.5407 99.3853 84.1497C99.4343 84.2376 99.5041 84.3121 99.5873 84.3678C99.6712 84.4228 99.7664 84.4584 99.8664 84.4698C99.9657 84.4819 100.067 84.4698 100.161 84.4356C100.256 84.4007 100.34 84.3443 100.409 84.2705C105.459 77.2572 107.982 74.7237 113.774 70.225C113.864 70.1613 113.926 70.0653 113.946 69.9566C113.967 69.8486 113.945 69.7359 113.884 69.644C113.824 69.5514 113.73 69.4856 113.623 69.4608C113.515 69.4367 113.402 69.4541 113.307 69.5111C107.933 73.098 103.391 77.7959 99.9865 83.2882Z" fill="#3AB6EC"/>
<path d="M58.9243 89.8917C53.9566 86.8624 45.5358 79.4109 42.0834 74.6968C38.6138 78.2361 35.5274 82.1309 32.8751 86.3175C39.1599 95.5859 49.1129 105.585 55.3503 108.49C54.6257 105.4 54.4413 96.858 54.6257 94.132C54.81 91.406 56.8647 90.3157 58.9243 89.8917Z" fill="#3AB6EC"/>
<path d="M30.4592 89.7507C32.0002 89.6863 31.2079 88.6055 30.5509 88.5927C21.775 88.4203 12.3695 88.2062 5.75294 88.3096C6.2642 50.0761 5.95825 25.952 6.16758 4.4091C6.17322 3.83826 5.31737 3.92602 5.2916 4.46949C4.4559 21.9835 4.96955 69.1481 4.32547 88.1787C4.30293 88.8309 4.34802 89.2475 5.75858 89.3099C9.70935 89.4871 13.5595 89.4944 17.5328 89.5629C21.1841 89.6266 26.9206 89.8984 30.4592 89.7507Z" fill="#3AB6EC"/>
<path d="M126.606 51.8023C126.993 43.9523 126.872 35.9985 126.908 28.1315C126.929 23.4811 127.14 10.9951 127.087 4.8673C127.078 3.80614 125.984 4.41079 125.973 4.94782C125.761 15.3525 125.213 41.3324 125.611 51.8137C125.645 52.696 126.567 52.6832 126.606 51.8023Z" fill="#3AB6EC"/>
<path d="M18.4748 27.8095C18.4748 25.2572 18.4965 22.7066 18.4748 20.1543C29.9704 20.0883 41.4733 20.0231 52.9674 19.8154C52.977 22.0488 52.9674 24.2822 52.9674 26.5156C41.9878 26.7966 30.7603 27.2105 19.7477 27.4077C19.0384 27.4206 19.1535 28.4802 19.8395 28.489C30.9591 28.6235 42.4202 27.9142 53.5744 27.6251C53.722 27.6098 53.8579 27.538 53.9537 27.4246C54.0495 27.3113 54.0976 27.1653 54.0881 27.0172C54.0881 24.4094 54.0793 21.8008 54.097 19.193C54.0813 19.0443 54.0086 18.9074 53.8943 18.8111C53.7799 18.7147 53.6327 18.6664 53.4835 18.6761C41.607 18.6833 29.7225 18.8452 17.846 19.0038C17.6942 19.0195 17.5543 19.0935 17.4558 19.2101C17.3573 19.3268 17.3078 19.4771 17.3178 19.6294C17.3838 22.3829 17.5239 25.13 17.6189 27.882C17.6326 28.4415 18.474 28.3626 18.4748 27.8095Z" fill="#3AB6EC"/>
<path d="M17.8049 46.2124C29.811 45.7438 42.1722 45.689 54.105 44.867C54.1924 44.8691 54.2791 44.8515 54.3588 44.8159C54.4386 44.7802 54.5095 44.7272 54.5662 44.6608C54.6229 44.5943 54.6642 44.5161 54.6869 44.4317C54.7096 44.3473 54.7133 44.259 54.6976 44.173C54.4867 42.4709 54.2749 40.7689 54.0535 39.0685C53.9609 38.3624 52.9014 38.6039 52.9786 39.2971C53.1397 40.7745 53.3184 42.2511 53.4939 43.7253C41.8373 44.2172 30.0775 44.5498 18.4708 44.9217C18.4708 42.6134 18.4587 40.302 18.5239 37.9977C30.2587 37.8761 41.7922 37.6861 53.6558 37.7827C53.7702 37.7846 53.8809 37.7419 53.9645 37.6637C54.0481 37.5856 54.098 37.478 54.1038 37.3637C54.1095 37.2494 54.0706 37.1373 53.9953 37.0511C53.92 36.965 53.8141 36.9114 53.7 36.9019C41.7906 36.3536 29.8312 36.5951 17.8718 36.6193C17.7791 36.6143 17.6863 36.6277 17.5988 36.6587C17.5113 36.6897 17.4308 36.7378 17.362 36.8C17.2931 36.8623 17.2372 36.9375 17.1977 37.0215C17.158 37.1055 17.1354 37.1964 17.131 37.2892C17.2301 40.0371 17.193 42.7946 17.2027 45.5458C17.1965 45.7134 17.256 45.8769 17.3684 46.0014C17.4809 46.1259 17.6375 46.2016 17.8049 46.2124Z" fill="#3AB6EC"/>
<path d="M53.117 62.3361C47.3523 62.4126 40.0183 62.2978 34.1047 62.5776C33.6095 62.6004 33.632 63.6102 34.1175 63.6182C39.4419 63.7095 47.4996 63.4458 53.6548 63.576C54.3352 63.5901 54.3666 62.9319 54.2868 62.4421C53.8894 60.0394 53.8679 57.5892 54.2232 55.1798C54.2396 55.0933 54.2363 55.0034 54.2136 54.9181C54.1909 54.8329 54.1493 54.7531 54.0919 54.686C54.0346 54.6189 53.9628 54.5652 53.882 54.5297C53.8012 54.4934 53.7134 54.476 53.625 54.4787C41.912 54.7558 30.1957 55.1885 18.4835 55.3764C18.326 55.3871 18.1788 55.4583 18.0729 55.5757C17.9669 55.6924 17.9103 55.8461 17.9151 56.0037C17.8942 58.5379 17.899 61.0761 17.8813 63.6068C17.8922 63.7739 17.9676 63.9296 18.0914 64.0423C18.2151 64.1543 18.3777 64.214 18.5447 64.2087C21.9263 64.0846 24.5888 64.1033 27.9712 63.8947C28.5348 63.8598 28.4873 62.8433 27.9285 62.8413C24.7579 62.8326 22.3127 62.8675 19.1429 62.9332C19.1308 60.807 19.1284 58.6808 19.1139 56.5539C30.4035 56.1513 41.7019 55.9742 52.9938 55.6589C52.7296 57.8797 52.7711 60.126 53.117 62.3361Z" fill="#3AB6EC"/>
<path d="M80.4876 69.8426C81.0203 69.9694 81.1652 69.1133 80.6486 68.9623C75.01 67.1655 70.2812 63.266 67.4445 58.0729C60.8976 46.3806 64.9482 31.0582 75.5844 23.2855C85.0044 16.4008 105.24 16.5409 111.765 27.7942C112.159 28.4745 113.185 28.1026 112.856 27.3787C107.755 16.1351 87.0501 14.5248 76.8967 20.7243C64.941 28.0269 59.3961 43.8203 65.3189 56.7646C68.2979 63.2761 73.8305 68.2665 80.4876 69.8426Z" fill="#3AB6EC"/>
<path d="M126.512 72.1996C126.716 70.4639 126.534 65.8391 126.542 63.1332C126.542 62.1616 125.631 62.5186 125.597 62.9252C125.404 66.0142 125.396 69.1112 125.573 72.2009C125.609 72.6625 126.459 72.6552 126.512 72.1996Z" fill="#3AB6EC"/>
<path d="M129.399 119.818C124.593 119.255 114.627 118.637 108.156 118.53C108.156 114.814 104.602 93.5711 102.34 91.7938C100.174 90.0916 59.087 89.7749 57.3906 93.0015C55.1604 97.2492 58.8463 123.566 60.8817 124.261C64.1932 125.388 127.135 125.201 129.881 124.985C131.317 124.877 131.521 120.065 129.399 119.818ZM70.0739 94.3286C67.6874 94.5782 65.4041 94.9083 63.0241 95.2565C60.9638 95.5584 60.8181 95.9905 60.5942 97.9678C60.3106 100.315 60.1745 102.679 60.1868 105.044C60.1868 105.547 59.455 105.679 59.3882 105.15C59.0801 102.436 59.1006 99.6941 59.4493 96.9855C59.6796 95.2075 60.335 94.4091 62.1063 94.0475C64.7253 93.5181 67.3989 93.3088 70.0679 93.4228C70.1766 93.4383 70.2759 93.4926 70.3476 93.5751C70.4194 93.6577 70.4597 93.7637 70.4604 93.873C70.461 93.9824 70.4221 94.0891 70.3517 94.1723C70.2806 94.2561 70.1819 94.3112 70.0739 94.3286ZM80.5936 112.306C78.8908 112.629 77.0463 111.707 76.3821 109.11C75.8044 106.856 76.8652 105.154 78.7378 104.675C83.2224 103.529 84.8608 111.491 80.5936 112.306Z" fill="#191919"/>
<path d="M127.146 58.554C119.489 50.9674 124.054 40.3309 119.157 35.1837C118.231 34.1854 116.98 33.5485 115.628 33.3862C114.276 33.2241 112.911 33.5472 111.775 34.298C108.003 28.1637 100.309 26.6791 93.7581 28.7201C86.6193 30.9447 84.0617 39.6602 89.7922 42.4653C92.7953 43.9354 103.339 44.0602 106.635 43.4218C106.899 46.1512 107.92 48.7525 109.582 50.9328C109.753 51.1381 109.992 51.4225 110.275 51.1743C110.581 50.8982 110.942 50.6887 111.333 50.5591C111.725 50.4296 112.139 50.3827 112.55 50.4216C112.96 50.4606 113.359 50.5843 113.719 50.7852C114.08 50.986 114.394 51.2595 114.643 51.5883C114.873 51.9271 115.032 52.3075 115.114 52.7081C115.196 53.1086 115.197 53.5213 115.119 53.9225C115.041 54.3237 114.884 54.7055 114.658 55.0456C114.431 55.3865 114.14 55.6783 113.801 55.9065C112.816 56.5573 112.114 56.4627 111.011 56.407C110.665 56.3902 110.601 56.6794 110.577 56.9431C110.237 60.7788 109.859 65.1554 110.444 68.9704C110.46 69.0764 110.516 69.1716 110.6 69.2374C110.685 69.3025 110.792 69.3327 110.898 69.3206C111.004 69.3078 111.101 69.2548 111.169 69.1723C111.237 69.0891 111.27 68.9831 111.26 68.8771C111.268 67.8432 111.229 66.8092 111.196 65.7747C116.586 66.3778 123.411 63.2251 127.162 59.6201C127.757 59.0559 127.331 58.7378 127.146 58.554ZM98.1454 32.3102C96.8311 32.2865 95.5308 32.5819 94.356 33.1708C93.051 33.7972 90.8349 35.3544 90.9838 36.9872C91.0281 37.4767 90.3243 37.7762 90.1418 37.2714C89.2601 34.8383 91.7145 32.9374 93.3502 32.0445C94.8075 31.2493 96.4406 30.83 98.1005 30.8247C100.225 30.8271 99.3478 32.3609 98.1454 32.3102Z" fill="#191919"/>
</svg>
