<svg width="216" height="27" viewBox="0 0 216 27" fill="none" xmlns="http://www.w3.org/2000/svg">
<g clip-path="url(#clip0_3_66)">
<path d="M13.6926 0.106476C11.0392 0.106476 8.44525 0.894766 6.23897 2.37165C4.03273 3.84852 2.31323 5.94768 1.29795 8.40358C0.282668 10.8595 0.0172177 13.5618 0.535167 16.1689C1.05311 18.7759 2.3312 21.1705 4.20778 23.0499C6.08435 24.9293 8.47514 26.2089 11.0778 26.727C13.6804 27.2451 16.3779 26.9785 18.8292 25.9607C21.2805 24.9429 23.3755 23.2198 24.8491 21.0093C26.3228 18.7987 27.1089 16.2 27.1082 13.5418C27.1082 11.7772 26.7611 10.0298 26.0869 8.39947C25.4127 6.76916 24.4244 5.28789 23.1786 4.04026C21.9329 2.79262 20.4539 1.80306 18.8263 1.12809C17.1987 0.453126 15.4542 0.105977 13.6926 0.106476ZM11.7946 19.2575L10.8076 22.1932C8.99377 21.5713 7.41937 20.397 6.30461 18.8345C5.18989 17.2721 4.5906 15.3996 4.5906 13.4791C4.5906 11.5586 5.18989 9.68611 6.30461 8.12365C7.41937 6.56115 8.99377 5.38684 10.8076 4.76493L11.7946 7.7045C10.5949 8.11947 9.55427 8.89897 8.81766 9.93436C8.0811 10.9698 7.68522 12.2095 7.68522 13.481C7.68522 14.7524 8.0811 15.9922 8.81766 17.0276C9.55427 18.063 10.5949 18.8425 11.7946 19.2575ZM16.4069 22.2541L15.4806 19.2955C16.7036 18.9017 17.7712 18.131 18.5309 17.0933C19.2907 16.0556 19.7038 14.804 19.7114 13.5172C19.719 12.2304 19.3206 10.974 18.5731 9.9274C17.8256 8.88083 16.7672 8.09753 15.549 7.68929L16.5094 4.74211C18.3448 5.35817 19.9391 6.53902 21.0651 8.11631C22.1911 9.69357 22.7912 11.5867 22.7798 13.5257C22.7684 15.4648 22.1462 17.3508 21.0018 18.9147C19.8574 20.4786 18.2494 21.6406 16.4069 22.2351" fill="#3AB6EC"/>
<path d="M146.637 0.0418396H146.045V26.9163H146.637V0.0418396Z" fill="black"/>
<path d="M155.818 16.4966L159.971 10.0472V16.4966H160.907V8.74649H159.971L155.818 15.1959V8.74649H154.882V16.4966H155.818Z" fill="black"/>
<path d="M166.439 16.4966H167.332V10.8276H166.439V13.2123H163.674V10.8276H162.781V16.4966H163.674V13.971H166.439V16.4966Z" fill="black"/>
<path d="M169.138 16.4966H171.343C172.57 16.4966 173.355 15.9547 173.355 14.8274V14.7948C173.355 14.0577 172.892 13.6675 172.182 13.5158C172.817 13.3532 173.086 12.8112 173.086 12.3018V12.2693C173.086 11.1528 172.161 10.8276 171.107 10.8276H169.138V16.4966ZM171.096 11.543C171.774 11.543 172.15 11.7165 172.15 12.3126V12.3452C172.15 12.963 171.849 13.2231 171.107 13.2231H170.031V11.543H171.096ZM171.257 13.9385C172.032 13.9385 172.419 14.2095 172.419 14.849V14.8816C172.419 15.5102 172.042 15.7812 171.257 15.7812H170.031V13.9385H171.257Z" fill="black"/>
<path d="M177.082 16.5942C178.351 16.5942 179.288 15.998 179.481 14.8599H178.588C178.47 15.5211 177.964 15.8463 177.093 15.8463C175.941 15.8463 175.328 15.1309 175.285 13.841H179.524V13.5483C179.524 11.5214 178.298 10.7301 176.996 10.7301C175.447 10.7301 174.36 11.9224 174.36 13.635V13.7217C174.36 15.4669 175.49 16.5942 177.082 16.5942ZM175.317 13.1147C175.468 12.1067 176.081 11.478 176.996 11.478C177.921 11.478 178.524 11.9441 178.61 13.1147H175.317Z" fill="black"/>
<path d="M183.229 16.5942C184.585 16.5942 185.563 15.6837 185.682 14.4588H184.853C184.756 15.3802 184.036 15.8463 183.239 15.8463C182.153 15.8463 181.4 15.1092 181.4 13.7217V13.635C181.4 12.3018 182.185 11.478 183.208 11.478C183.982 11.478 184.628 11.814 184.767 12.7137H185.65C185.477 11.272 184.38 10.7301 183.208 10.7301C181.701 10.7301 180.475 11.9007 180.475 13.635V13.7217C180.475 15.4777 181.658 16.5942 183.229 16.5942Z" fill="black"/>
<path d="M190.978 10.8276H186.449V11.5864H188.267V16.4966H189.16V11.5864H190.978V10.8276Z" fill="black"/>
<path d="M193.102 16.4966L195.975 12.1284V16.4966H196.868V10.8276H195.975L193.102 15.1959V10.8276H192.21V16.4966H193.102Z" fill="black"/>
<path d="M203.87 17.8732V15.7379H203.009V10.8276H202.116V15.7379H199.459V10.8276H198.566V16.4966H203.084L203.149 17.8732H203.87Z" fill="black"/>
<path d="M205.878 16.4966L208.751 12.1284V16.4966H209.644V10.8276H208.751L205.878 15.1959V10.8276H204.985V16.4966H205.878Z" fill="black"/>
<path d="M212.234 16.4966L215.107 12.1284V16.4966H216V10.8276H215.107L212.234 15.1959V10.8276H211.342V16.4966H212.234Z" fill="black"/>
<path d="M13.6926 0.102692C11.0393 0.102692 8.44556 0.890885 6.23939 2.3676C4.03319 3.84432 2.3137 5.94321 1.29831 8.39892C0.28292 10.8546 0.0172476 13.5568 0.534889 16.1637C1.05253 18.7706 2.33024 21.1653 4.20644 23.0448C6.08264 24.9242 8.47305 26.2042 11.0754 26.7228C13.6778 27.2413 16.3752 26.9752 18.8266 25.958C21.2779 24.9408 23.3731 23.2183 24.8473 21.0083C26.3214 18.7982 27.1082 16.1999 27.1082 13.5418C27.1082 9.97758 25.6948 6.55927 23.1789 4.03895C20.663 1.5186 17.2507 0.102692 13.6926 0.102692ZM11.7946 19.2575L10.8076 22.1933C8.99377 21.5713 7.41937 20.397 6.30461 18.8346C5.18989 17.2721 4.59064 15.3996 4.59064 13.4791C4.59064 11.5586 5.18989 9.68613 6.30461 8.12367C7.41937 6.56117 8.99377 5.38686 10.8076 4.76494L11.7946 7.70452C10.5949 8.11948 9.55427 8.89899 8.81766 9.93438C8.0811 10.9698 7.68522 12.2096 7.68522 13.481C7.68522 14.7524 8.0811 15.9922 8.81766 17.0276C9.55427 18.063 10.5949 18.8425 11.7946 19.2575ZM16.4107 22.2541L15.4844 19.2955C16.7074 18.9017 17.775 18.131 18.5347 17.0933C19.2945 16.0556 19.7076 14.804 19.7152 13.5172C19.7228 12.2304 19.3244 10.974 18.5769 9.92742C17.8294 8.88085 16.771 8.09754 15.5528 7.68931L16.5132 4.74213C18.3467 5.36012 19.9389 6.5417 21.0632 8.11872C22.1875 9.69575 22.7866 11.5878 22.7753 13.5257C22.7639 15.4636 22.1427 17.3485 21 18.9122C19.8572 20.4759 18.2513 21.6387 16.4107 22.2351" fill="#3AB6EC"/>
<path d="M136.623 15.9452L138.111 17.7325C137.464 18.3982 136.688 18.9232 135.829 19.2745C134.971 19.6259 134.05 19.7961 133.123 19.7746C131.934 19.8254 130.751 19.5894 129.672 19.0863C127.694 18.1052 126.696 16.1049 126.696 13.6787C126.696 9.9938 129.182 7.30521 132.846 7.30521C136.9 7.30521 138.882 10.3475 138.62 14.3176H129.33C129.355 14.8069 129.497 15.2831 129.745 15.7055C129.993 16.1279 130.339 16.4841 130.754 16.7438C131.522 17.19 132.402 17.4064 133.29 17.3675C133.915 17.3694 134.534 17.2425 135.108 16.9946C135.682 16.7466 136.199 16.3829 136.626 15.9262L136.623 15.9452ZM129.365 12.1728H135.924C135.761 10.7315 134.584 9.51084 132.686 9.51084C131.907 9.483 131.143 9.73639 130.534 10.2249C129.925 10.7134 129.512 11.4046 129.368 12.1728H129.365ZM67.017 19.4666H70.3689L65.1039 13.3555L70.2894 7.60563H66.9866L63.0157 12.2108H61.8772V7.60563H59.3068V19.4666H61.8772V14.7473H63.0538L67.017 19.4666ZM77.927 9.73521C75.786 9.73521 74.3626 11.4046 74.3626 13.538C74.3626 15.6714 75.786 17.3408 77.927 17.3408C80.0679 17.3408 81.4765 15.7018 81.4765 13.538C81.4765 11.3742 80.1516 9.73521 77.927 9.73521ZM78.3673 7.30901C81.7043 7.30901 84.1563 9.92915 84.1563 13.5342C84.1563 17.1393 81.7195 19.7746 78.3673 19.7746C77.6554 19.8054 76.9454 19.6824 76.2853 19.414C75.6251 19.1457 75.03 18.7382 74.5409 18.2193V24.3989H71.9558V7.60563H74.4725V9.03169C74.9436 8.46142 75.5407 8.00911 76.2168 7.7107C76.893 7.41229 77.6296 7.27608 78.3673 7.31281V7.30901ZM112.073 7.60943H101.478V9.98619H105.487V19.4666H108.072V9.98239H112.081L112.073 7.60943ZM57.5153 7.60563H46.9165V9.98239H50.9212V19.4666H53.5254V9.98239H57.5343L57.5153 7.60563ZM43.7769 13.538C43.7769 11.3248 42.2056 9.68957 40.0794 9.68957C37.9538 9.68957 36.3859 11.2791 36.3859 13.538C36.3859 15.7969 37.9044 17.4055 40.0794 17.4055C42.2546 17.4055 43.7769 15.7817 43.7769 13.538ZM33.7362 13.538C33.7362 9.98239 36.4846 7.31281 40.0832 7.31281C43.6822 7.31281 46.4305 9.97478 46.4305 13.538C46.4305 17.1013 43.6784 19.7746 40.0794 19.7746C36.4808 19.7746 33.7362 17.0899 33.7362 13.538ZM124.604 7.60563V19.4666H122.069V11.8153L115.87 19.4666H113.842V7.60563H116.378V15.2417L122.592 7.60563H124.604ZM99.7091 19.4666H97.143V7.60563H99.7091V19.4666ZM93.1382 15.4204C93.1515 15.1844 93.1154 14.9483 93.0329 14.7269C92.9504 14.5055 92.8226 14.3036 92.6583 14.1342C92.4936 13.9648 92.2959 13.8314 92.0772 13.7425C91.8586 13.6536 91.6239 13.6112 91.3882 13.6179H88.7878V17.2724H91.3882C91.6266 17.2733 91.8628 17.2253 92.0822 17.1313C92.3012 17.0372 92.499 16.8992 92.6632 16.7257C92.8272 16.5521 92.9538 16.3468 93.0355 16.1223C93.1173 15.8978 93.1523 15.6589 93.1382 15.4204ZM95.6892 15.4204C95.6892 17.7972 93.9733 19.4666 91.468 19.4666H86.2521V7.60563H88.803V11.4389H91.6992C94.1517 11.4389 95.6892 13.0284 95.6892 15.4204Z" fill="black"/>
<path d="M13.4155 5.3813e-07C10.7619 -0.000751573 8.16757 0.786898 5.96084 2.26332C3.75408 3.73975 2.03398 5.83862 1.01812 8.29444C0.00226159 10.7503 -0.263731 13.4528 0.25379 16.0601C0.77131 18.6674 2.04909 21.0624 3.92553 22.9421C5.80196 24.8218 8.19271 26.1019 10.7954 26.6203C13.3981 27.1387 16.0959 26.8722 18.5474 25.8546C20.9989 24.837 23.0941 23.1138 24.5679 20.9032C26.0418 18.6925 26.828 16.0937 26.8273 13.4354C26.8273 9.87208 25.4143 6.45475 22.899 3.93512C20.3839 1.41551 16.9725 5.3813e-07 13.4155 5.3813e-07ZM11.5175 19.151L10.5305 22.0868C8.71663 21.4648 7.14222 20.2905 6.0275 18.728C4.91278 17.1656 4.3135 15.2931 4.3135 13.3726C4.3135 11.4521 4.91278 9.57964 6.0275 8.01717C7.14222 6.45467 8.71663 5.28036 10.5305 4.65845L11.5175 7.60563C10.3178 8.0206 9.27712 8.8001 8.54056 9.83549C7.80399 10.8709 7.40811 12.1107 7.40811 13.3821C7.40811 14.6535 7.80399 15.8933 8.54056 16.9287C9.27712 17.9641 10.3178 18.7436 11.5175 19.1586V19.151ZM16.1298 22.1552L15.1845 19.1928C16.4075 18.799 17.475 18.0283 18.2348 16.9906C18.9946 15.9529 19.4078 14.7013 19.4153 13.4145C19.4229 12.1277 19.0245 10.8713 18.277 9.82473C17.5295 8.77816 16.4711 7.99485 15.2529 7.58662L16.2133 4.63944C18.0487 5.25549 19.643 6.43634 20.769 8.01364C21.8949 9.59089 22.495 11.484 22.4837 13.4231C22.4723 15.3621 21.8501 17.2481 20.7057 18.812C19.5613 20.3759 17.9532 21.538 16.1108 22.1324" fill="#3AB6EC"/>
</g>
<defs>
<clipPath id="clip0_3_66">
<rect width="216" height="27" fill="white"/>
</clipPath>
</defs>
</svg>
