<svg width="22" height="22" viewBox="0 0 22 22" fill="none" xmlns="http://www.w3.org/2000/svg">
<path d="M20.4383 10.0458L11.2483 19.2358C10.1225 20.3616 8.59552 20.9941 7.00334 20.9941C5.41115 20.9941 3.88418 20.3616 2.75834 19.2358C1.63249 18.1099 1 16.5829 1 14.9908C1 13.3986 1.63249 11.8716 2.75834 10.7458L11.3283 2.17576C12.0789 1.42387 13.0974 1.00094 14.1598 1C15.2222 0.999064 16.2414 1.4202 16.9933 2.17076C17.7452 2.92132 18.1682 3.93983 18.1691 5.00223C18.17 6.06462 17.7489 7.08387 16.9983 7.83576L8.40834 16.4058C8.03306 16.781 7.52406 16.9919 6.99334 16.9919C6.46261 16.9919 5.95362 16.781 5.57834 16.4058C5.20306 16.0305 4.99222 15.5215 4.99222 14.9908C4.99222 14.46 5.20306 13.951 5.57834 13.5758L14.0683 5.09576" stroke="#505358" stroke-width="2" stroke-linecap="round" stroke-linejoin="round"/>
</svg>
